G04 #@! TF.GenerationSoftware,KiCad,Pcbnew,(6.0.5)*
G04 #@! TF.CreationDate,2023-02-13T16:39:57+00:00*
G04 #@! TF.ProjectId,MyRetroWiFiModem,4d795265-7472-46f5-9769-46694d6f6465,1*
G04 #@! TF.SameCoordinates,Original*
G04 #@! TF.FileFunction,Soldermask,Bot*
G04 #@! TF.FilePolarity,Negative*
%FSLAX46Y46*%
G04 Gerber Fmt 4.6, Leading zero omitted, Abs format (unit mm)*
G04 Created by KiCad (PCBNEW (6.0.5)) date 2023-02-13 16:39:57*
%MOMM*%
%LPD*%
G01*
G04 APERTURE LIST*
G04 Aperture macros list*
%AMRoundRect*
0 Rectangle with rounded corners*
0 $1 Rounding radius*
0 $2 $3 $4 $5 $6 $7 $8 $9 X,Y pos of 4 corners*
0 Add a 4 corners polygon primitive as box body*
4,1,4,$2,$3,$4,$5,$6,$7,$8,$9,$2,$3,0*
0 Add four circle primitives for the rounded corners*
1,1,$1+$1,$2,$3*
1,1,$1+$1,$4,$5*
1,1,$1+$1,$6,$7*
1,1,$1+$1,$8,$9*
0 Add four rect primitives between the rounded corners*
20,1,$1+$1,$2,$3,$4,$5,0*
20,1,$1+$1,$4,$5,$6,$7,0*
20,1,$1+$1,$6,$7,$8,$9,0*
20,1,$1+$1,$8,$9,$2,$3,0*%
G04 Aperture macros list end*
G04 #@! TA.AperFunction,Profile*
%ADD10C,0.150000*%
G04 #@! TD*
%ADD11C,2.000000*%
%ADD12C,1.800000*%
%ADD13O,1.800000X1.800000*%
%ADD14C,3.600000*%
%ADD15RoundRect,0.200000X0.800000X0.800000X-0.800000X0.800000X-0.800000X-0.800000X0.800000X-0.800000X0*%
%ADD16O,2.000000X2.000000*%
%ADD17RoundRect,0.450000X-0.600000X-0.600000X0.600000X-0.600000X0.600000X0.600000X-0.600000X0.600000X0*%
%ADD18C,2.100000*%
%ADD19C,1.924000*%
%ADD20RoundRect,0.200000X-0.900000X-0.900000X0.900000X-0.900000X0.900000X0.900000X-0.900000X0.900000X0*%
%ADD21C,2.200000*%
%ADD22RoundRect,0.200000X-0.750000X-0.750000X0.750000X-0.750000X0.750000X0.750000X-0.750000X0.750000X0*%
%ADD23C,1.900000*%
%ADD24RoundRect,0.200000X-1.750000X-1.750000X1.750000X-1.750000X1.750000X1.750000X-1.750000X1.750000X0*%
%ADD25RoundRect,0.950000X-0.750000X-1.000000X0.750000X-1.000000X0.750000X1.000000X-0.750000X1.000000X0*%
%ADD26RoundRect,1.075000X-0.875000X-0.875000X0.875000X-0.875000X0.875000X0.875000X-0.875000X0.875000X0*%
%ADD27RoundRect,0.200000X0.800000X-0.800000X0.800000X0.800000X-0.800000X0.800000X-0.800000X-0.800000X0*%
G04 APERTURE END LIST*
D10*
X107950000Y-44450000D02*
X224155000Y-44450000D01*
X224155000Y-44450000D02*
X224155000Y-127000000D01*
X224155000Y-127000000D02*
X107950000Y-127000000D01*
X107950000Y-127000000D02*
X107950000Y-44450000D01*
D11*
X169545000Y-76835000D03*
X172045000Y-76835000D03*
D12*
X136525000Y-105405000D03*
D13*
X144145000Y-105405000D03*
D12*
X204470000Y-66040000D03*
D13*
X212090000Y-66040000D03*
D11*
X195570000Y-58395000D03*
X195570000Y-55895000D03*
D14*
X129540000Y-119380000D03*
D15*
X191760000Y-111760000D03*
D16*
X191760000Y-109220000D03*
X191760000Y-106680000D03*
X191760000Y-104140000D03*
X191760000Y-101600000D03*
X191760000Y-99060000D03*
X191760000Y-96520000D03*
X191760000Y-93980000D03*
X191760000Y-91440000D03*
X191760000Y-88900000D03*
X184140000Y-88900000D03*
X184140000Y-91440000D03*
X184140000Y-93980000D03*
X184140000Y-96520000D03*
X184140000Y-99060000D03*
X184140000Y-101600000D03*
X184140000Y-104140000D03*
X184140000Y-106680000D03*
X184140000Y-109220000D03*
X184140000Y-111760000D03*
D17*
X169427500Y-55880000D03*
D18*
X171967500Y-55880000D03*
X169427500Y-58420000D03*
X171967500Y-58420000D03*
X169427500Y-60960000D03*
X171967500Y-60960000D03*
X169427500Y-63500000D03*
X171967500Y-63500000D03*
X169427500Y-66040000D03*
X171967500Y-66040000D03*
D12*
X204470000Y-81280000D03*
D13*
X212090000Y-81280000D03*
D12*
X204470000Y-73660000D03*
D13*
X212090000Y-73660000D03*
D19*
X152400000Y-70485000D03*
X149860000Y-70485000D03*
X147320000Y-70485000D03*
X144780000Y-70485000D03*
X142240000Y-70485000D03*
X139700000Y-70485000D03*
X137160000Y-70485000D03*
X134620000Y-70485000D03*
X132080000Y-70485000D03*
X129540000Y-70485000D03*
X127000000Y-70485000D03*
X124460000Y-70485000D03*
X121920000Y-70485000D03*
X119380000Y-70485000D03*
X116840000Y-70485000D03*
X116840000Y-93980000D03*
X119380000Y-93980000D03*
X121920000Y-93980000D03*
X124460000Y-93980000D03*
X127000000Y-93980000D03*
X129540000Y-93980000D03*
X132080000Y-93980000D03*
X134620000Y-93980000D03*
X137160000Y-93980000D03*
X139700000Y-93980000D03*
X142240000Y-93980000D03*
X144780000Y-93980000D03*
X147320000Y-93980000D03*
X149860000Y-93980000D03*
X152400000Y-93980000D03*
D20*
X218440000Y-81280000D03*
D21*
X220980000Y-81280000D03*
D11*
X195580000Y-72370000D03*
X195580000Y-69870000D03*
D12*
X204470000Y-88900000D03*
D13*
X212090000Y-88900000D03*
D20*
X218440000Y-58420000D03*
D21*
X220980000Y-58420000D03*
D22*
X137795000Y-113030000D03*
D23*
X140335000Y-113030000D03*
X142875000Y-113030000D03*
D24*
X122205000Y-113020000D03*
D25*
X116205000Y-113020000D03*
D26*
X119205000Y-117720000D03*
D14*
X116840000Y-50800000D03*
D15*
X191125000Y-73645000D03*
D16*
X191125000Y-71105000D03*
X191125000Y-68565000D03*
X191125000Y-66025000D03*
X191125000Y-63485000D03*
X191125000Y-60945000D03*
X191125000Y-58405000D03*
X191125000Y-55865000D03*
X183505000Y-55865000D03*
X183505000Y-58405000D03*
X183505000Y-60945000D03*
X183505000Y-63485000D03*
X183505000Y-66025000D03*
X183505000Y-68565000D03*
X183505000Y-71105000D03*
X183505000Y-73645000D03*
D11*
X167640000Y-105410000D03*
X170140000Y-105410000D03*
D12*
X204470000Y-58420000D03*
D13*
X212090000Y-58420000D03*
D11*
X190500000Y-78740000D03*
X193000000Y-78740000D03*
D20*
X218440000Y-88900000D03*
D21*
X220980000Y-88900000D03*
D14*
X208280000Y-50800000D03*
D27*
X157480000Y-118100000D03*
D16*
X160020000Y-118100000D03*
X162560000Y-118100000D03*
X165100000Y-118100000D03*
X167640000Y-118100000D03*
X170180000Y-118100000D03*
X172720000Y-118100000D03*
X172720000Y-110480000D03*
X170180000Y-110480000D03*
X167640000Y-110480000D03*
X165100000Y-110480000D03*
X162560000Y-110480000D03*
X160020000Y-110480000D03*
X157480000Y-110480000D03*
D20*
X218440000Y-104140000D03*
D21*
X220980000Y-104140000D03*
D20*
X218440000Y-66040000D03*
D21*
X220980000Y-66040000D03*
D14*
X149860000Y-50800000D03*
D12*
X204470000Y-96520000D03*
D13*
X212090000Y-96520000D03*
D12*
X204470000Y-111760000D03*
D13*
X212090000Y-111760000D03*
D11*
X186710000Y-118110000D03*
X189210000Y-118110000D03*
D20*
X218440000Y-111760000D03*
D21*
X220980000Y-111760000D03*
D14*
X208280000Y-119380000D03*
D11*
X195570000Y-64725000D03*
X195570000Y-62225000D03*
D14*
X170180000Y-86360000D03*
D20*
X218440000Y-73660000D03*
D21*
X220980000Y-73660000D03*
D12*
X204470000Y-104140000D03*
D13*
X212090000Y-104140000D03*
D11*
X157520000Y-104775000D03*
X162520000Y-104775000D03*
D20*
X218440000Y-96520000D03*
D21*
X220980000Y-96520000D03*
M02*
