M48
; DRILL file {KiCad (6.0.5)} date Mon Feb 13 16:39:51 2023
; FORMAT={-:-/ absolute / inch / decimal}
; #@! TF.CreationDate,2023-02-13T16:39:51+00:00
; #@! TF.GenerationSoftware,Kicad,Pcbnew,(6.0.5)
; #@! TF.FileFunction,Plated,1,2,PTH
FMAT,2
INCH
; #@! TA.AperFunction,Plated,PTH,ComponentDrill
T1C0.0276
; #@! TA.AperFunction,Plated,PTH,ComponentDrill
T2C0.0300
; #@! TA.AperFunction,Plated,PTH,ComponentDrill
T3C0.0315
; #@! TA.AperFunction,Plated,PTH,ViaDrill
T4C0.0354
; #@! TA.AperFunction,Plated,PTH,ComponentDrill
T5C0.0354
; #@! TA.AperFunction,Plated,PTH,ComponentDrill
T6C0.0394
%
G90
G05
T1
X5.375Y-4.1498
X5.675Y-4.1498
X8.05Y-2.3
X8.05Y-2.6
X8.05Y-2.9
X8.05Y-3.2
X8.05Y-3.5
X8.05Y-3.8
X8.05Y-4.1
X8.05Y-4.4
X8.35Y-2.3
X8.35Y-2.6
X8.35Y-2.9
X8.35Y-3.2
X8.35Y-3.5
X8.35Y-3.8
X8.35Y-4.1
X8.35Y-4.4
T2
X4.6Y-2.775
X4.6Y-3.7
X4.7Y-2.775
X4.7Y-3.7
X4.8Y-2.775
X4.8Y-3.7
X4.9Y-2.775
X4.9Y-3.7
X5.0Y-2.775
X5.0Y-3.7
X5.1Y-2.775
X5.1Y-3.7
X5.2Y-2.775
X5.2Y-3.7
X5.3Y-2.775
X5.3Y-3.7
X5.4Y-2.775
X5.4Y-3.7
X5.5Y-2.775
X5.5Y-3.7
X5.6Y-2.775
X5.6Y-3.7
X5.7Y-2.775
X5.7Y-3.7
X5.8Y-2.775
X5.8Y-3.7
X5.9Y-2.775
X5.9Y-3.7
X6.0Y-2.775
X6.0Y-3.7
T3
X5.425Y-4.45
X5.525Y-4.45
X5.625Y-4.45
X6.2Y-4.3496
X6.2Y-4.6496
X6.2016Y-4.125
X6.3Y-4.3496
X6.3Y-4.6496
X6.3984Y-4.125
X6.4Y-4.3496
X6.4Y-4.6496
X6.5Y-4.3496
X6.5Y-4.6496
X6.6Y-4.15
X6.6Y-4.3496
X6.6Y-4.6496
X6.675Y-3.025
X6.6984Y-4.15
X6.7Y-4.3496
X6.7Y-4.6496
X6.7734Y-3.025
X6.8Y-4.3496
X6.8Y-4.6496
X7.2246Y-2.1994
X7.2246Y-2.2994
X7.2246Y-2.3994
X7.2246Y-2.4994
X7.2246Y-2.5994
X7.2246Y-2.6994
X7.2246Y-2.7994
X7.2246Y-2.8994
X7.2496Y-3.5
X7.2496Y-3.6
X7.2496Y-3.7
X7.2496Y-3.8
X7.2496Y-3.9
X7.2496Y-4.0
X7.2496Y-4.1
X7.2496Y-4.2
X7.2496Y-4.3
X7.2496Y-4.4
X7.3508Y-4.65
X7.4492Y-4.65
X7.5Y-3.1
X7.5246Y-2.1994
X7.5246Y-2.2994
X7.5246Y-2.3994
X7.5246Y-2.4994
X7.5246Y-2.5994
X7.5246Y-2.6994
X7.5246Y-2.7994
X7.5246Y-2.8994
X7.5496Y-3.5
X7.5496Y-3.6
X7.5496Y-3.7
X7.5496Y-3.8
X7.5496Y-3.9
X7.5496Y-4.0
X7.5496Y-4.1
X7.5496Y-4.2
X7.5496Y-4.3
X7.5496Y-4.4
X7.5984Y-3.1
X7.6996Y-2.2006
X7.6996Y-2.299
X7.6996Y-2.4498
X7.6996Y-2.5482
X7.7Y-2.7508
X7.7Y-2.8492
T4
X5.375Y-3.35
X6.35Y-3.625
X6.55Y-3.625
X6.675Y-3.8
X6.95Y-2.05
X6.975Y-3.8
X7.1Y-3.075
X7.35Y-3.625
X7.725Y-3.275
T5
X8.6Y-2.3
X8.6Y-2.6
X8.6Y-2.9
X8.6Y-3.2
X8.6Y-3.5
X8.6Y-3.8
X8.6Y-4.1
X8.6Y-4.4
X8.7Y-2.3
X8.7Y-2.6
X8.7Y-2.9
X8.7Y-3.2
X8.7Y-3.5
X8.7Y-3.8
X8.7Y-4.1
X8.7Y-4.4
T6
X6.6704Y-2.2
X6.6704Y-2.3
X6.6704Y-2.4
X6.6704Y-2.5
X6.6704Y-2.6
X6.7704Y-2.2
X6.7704Y-2.3
X6.7704Y-2.4
X6.7704Y-2.5
X6.7704Y-2.6
T6
G00X4.575Y-4.4102
M15
G01X4.575Y-4.489
M16
G05
G00X4.6537Y-4.6346
M15
G01X4.7325Y-4.6346
M16
G05
G00X4.8112Y-4.4102
M15
G01X4.8112Y-4.489
M16
G05
T0
M30
